<svg width="240" height="140" viewBox="0 0 240 140" fill="none" xmlns="http://www.w3.org/2000/svg">
<path d="M123.144 63.035C120.04 60.9567 116.321 59.993 112.597 60.302C108.872 60.6111 105.363 62.1744 102.646 64.7356C99.9294 67.2968 98.1653 70.7037 97.6437 74.3973C97.1221 78.0908 97.874 81.8516 99.776 85.0625" stroke="#263238" stroke-width="0.969642" stroke-linecap="round" stroke-linejoin="round"/>
<path d="M129.002 70.0114C128.682 69.2911 128.31 68.5943 127.892 67.9259" stroke="#263238" stroke-width="0.969642" stroke-linecap="round" stroke-linejoin="round"/>
<path d="M127.598 85.8635C128.826 84.0394 129.677 81.9886 130.1 79.8318C130.524 77.6749 130.511 75.4554 130.063 73.3035" stroke="#263238" stroke-width="0.969642" stroke-linecap="round" stroke-linejoin="round"/>
<path d="M97.5783 60.3445C96.4578 61.4666 95.4536 62.6986 94.5811 64.0219" stroke="#263238" stroke-width="0.969642" stroke-linecap="round" stroke-linejoin="round"/>
<path d="M132.227 90.8018C135.543 86.5242 137.249 81.2206 137.048 75.8161C136.847 70.4116 134.751 65.2491 131.126 61.229C127.501 57.2089 122.577 54.5863 117.213 53.8187C111.849 53.0511 106.385 54.1872 101.774 57.0288" stroke="#263238" stroke-width="0.969642" stroke-linecap="round" stroke-linejoin="round"/>
<path d="M95.603 90.8017C93.3156 87.8469 91.7785 84.3836 91.1227 80.7074C90.4669 77.0313 90.712 73.2513 91.8371 69.6902" stroke="#263238" stroke-width="0.969642" stroke-linecap="round" stroke-linejoin="round"/>
<path d="M88.3525 96.639C89.7918 98.4736 91.4245 100.148 93.2225 101.635" stroke="#263238" stroke-width="0.969642" stroke-linecap="round" stroke-linejoin="round"/>
<path d="M132.308 49.9375C126.511 45.975 119.582 43.9954 112.561 44.2956C105.541 44.5958 98.8071 47.1597 93.3701 51.6027C87.9332 56.0457 84.0862 62.1282 82.4061 68.9379C80.726 75.7477 81.3035 82.9175 84.0519 89.3719" stroke="#263238" stroke-width="0.969642" stroke-linecap="round" stroke-linejoin="round"/>
<path d="M144.229 64.9616C143.357 62.7159 142.235 60.5743 140.887 58.5768" stroke="#263238" stroke-width="0.969642" stroke-linecap="round" stroke-linejoin="round"/>
<path d="M136.386 100.09C139.56 97.0678 142.085 93.4335 143.809 89.4076C145.533 85.3816 146.419 81.0481 146.414 76.6699" stroke="#263238" stroke-width="0.969642" stroke-linecap="round" stroke-linejoin="round"/>
<path d="M68.5508 76.6699C68.5508 87.4257 72.3668 97.834 79.3223 106.05C86.2778 114.265 95.9234 119.758 106.549 121.553" stroke="#263238" stroke-width="0.969642" stroke-linecap="round" stroke-linejoin="round"/>
<path d="M150.576 103.754C156.132 96.251 159.244 87.2259 159.492 77.8997C159.74 68.5735 157.111 59.3964 151.962 51.6101C146.812 43.8238 139.39 37.8042 130.701 34.3657C122.011 30.9272 112.472 30.2359 103.376 32.3852" stroke="#263238" stroke-width="0.969642" stroke-linecap="round" stroke-linejoin="round"/>
<path d="M68.5508 76.6699C68.5512 66.4666 71.9857 56.5591 78.3033 48.5371C84.621 40.5151 93.4555 34.8436 103.389 32.4325" stroke="#263238" stroke-width="0.969642" stroke-linecap="round" stroke-linejoin="round"/>
<path d="M140.887 113.37C142.045 112.521 143.159 111.619 144.229 110.666" stroke="#263238" stroke-width="0.969642" stroke-linecap="round" stroke-linejoin="round"/>
<path d="M121.521 121.553C126.708 120.686 131.703 118.925 136.284 116.348" stroke="#263238" stroke-width="0.969642" stroke-linecap="round" stroke-linejoin="round"/>
<path d="M113.936 117.477C109.317 117.471 104.889 115.638 101.623 112.378C98.3572 109.119 96.52 104.7 96.5146 100.09V94.2358C96.5146 93.9848 96.6146 93.7441 96.7924 93.5666C96.9702 93.3891 97.2114 93.2894 97.4629 93.2894H99.8336C100.085 93.2894 100.326 93.3891 100.504 93.5666C100.682 93.7441 100.782 93.9848 100.782 94.2358C100.782 94.4868 100.682 94.7276 100.504 94.905C100.326 95.0825 100.085 95.1822 99.8336 95.1822H98.4213V100.09C98.4213 104.199 100.057 108.14 102.968 111.046C105.88 113.952 109.828 115.584 113.946 115.584C118.063 115.584 122.012 113.952 124.923 111.046C127.835 108.14 129.47 104.199 129.47 100.09V95.1822H128.048C127.796 95.1822 127.555 95.0825 127.377 94.905C127.2 94.7276 127.1 94.4868 127.1 94.2358C127.1 93.9848 127.2 93.7441 127.377 93.5666C127.555 93.3891 127.796 93.2894 128.048 93.2894H130.419C130.67 93.2894 130.911 93.3891 131.089 93.5666C131.267 93.7441 131.367 93.9848 131.367 94.2358V100.09C131.361 104.701 129.523 109.122 126.255 112.382C122.987 115.642 118.556 117.474 113.936 117.477Z" fill="#263238"/>
<path d="M132.305 132.024V130.131C132.305 129.883 132.257 129.636 132.162 129.407C132.066 129.177 131.927 128.968 131.75 128.792C131.574 128.616 131.365 128.477 131.135 128.382C130.904 128.287 130.658 128.238 130.408 128.239H97.4629C97.2138 128.238 96.9669 128.287 96.7366 128.382C96.5063 128.477 96.2971 128.616 96.1209 128.792C95.9447 128.968 95.805 129.177 95.7099 129.407C95.6147 129.636 95.566 129.883 95.5664 130.131V132.024H132.305Z" fill="#263238"/>
<path d="M115.785 130.544C115.816 130.409 115.832 130.27 115.832 130.131V116.53H112.039V130.131C112.039 130.27 112.055 130.409 112.086 130.544H115.785Z" fill="#263238"/>
<path d="M125.667 76.6699C125.694 75.1154 125.41 73.5712 124.832 72.1273C124.254 70.6835 123.394 69.3689 122.302 68.2602C121.21 67.1515 119.907 66.271 118.471 65.6699C117.034 65.0688 115.492 64.7593 113.934 64.7593C112.376 64.7593 110.834 65.0688 109.397 65.6699C107.961 66.271 106.658 67.1515 105.566 68.2602C104.474 69.3689 103.614 70.6835 103.036 72.1273C102.458 73.5712 102.174 75.1154 102.201 76.6699V100.09C102.253 103.161 103.512 106.089 105.707 108.242C107.902 110.396 110.856 111.603 113.934 111.603C117.012 111.603 119.966 110.396 122.161 108.242C124.356 106.089 125.615 103.161 125.667 100.09V76.6699Z" stroke="#263238" stroke-width="0.969642" stroke-linecap="round" stroke-linejoin="round"/>
<path d="M125.667 76.6699C125.694 75.1154 125.41 73.5712 124.832 72.1273C124.254 70.6835 123.394 69.3689 122.302 68.2602C121.21 67.1515 119.907 66.271 118.471 65.6699C117.034 65.0688 115.492 64.7593 113.934 64.7593C112.376 64.7593 110.834 65.0688 109.397 65.6699C107.961 66.271 106.658 67.1515 105.566 68.2602C104.474 69.3689 103.614 70.6835 103.036 72.1273C102.458 73.5712 102.174 75.1154 102.201 76.6699V100.09C102.253 103.161 103.512 106.089 105.707 108.242C107.902 110.396 110.856 111.603 113.934 111.603C117.012 111.603 119.966 110.396 122.161 108.242C124.356 106.089 125.615 103.161 125.667 100.09V76.6699Z" fill="#E8E8E8"/>
<path d="M109.076 77.9037H102.201V80.7429H109.076C109.453 80.7429 109.815 80.5933 110.082 80.3271C110.349 80.0609 110.499 79.6998 110.499 79.3233C110.499 78.9468 110.349 78.5857 110.082 78.3195C109.815 78.0532 109.453 77.9037 109.076 77.9037Z" fill="white"/>
<path d="M125.668 77.9037H118.796C118.419 77.9037 118.057 78.0532 117.791 78.3195C117.524 78.5857 117.374 78.9468 117.374 79.3233C117.374 79.6998 117.524 80.0609 117.791 80.3271C118.057 80.5933 118.419 80.7429 118.796 80.7429H125.668V77.9037Z" fill="white"/>
<path d="M113.936 77.9037C113.655 77.9037 113.38 77.9869 113.146 78.1429C112.912 78.2989 112.73 78.5206 112.622 78.78C112.514 79.0394 112.486 79.3249 112.541 79.6002C112.596 79.8756 112.731 80.1285 112.93 80.3271C113.129 80.5256 113.383 80.6608 113.659 80.7156C113.934 80.7704 114.22 80.7423 114.48 80.6348C114.74 80.5274 114.962 80.3454 115.119 80.112C115.275 79.8785 115.358 79.604 115.358 79.3233C115.358 78.9468 115.209 78.5857 114.942 78.3195C114.675 78.0532 114.313 77.9037 113.936 77.9037Z" fill="white"/>
<path d="M113.936 83.6429C113.655 83.6429 113.38 83.7262 113.146 83.8822C112.912 84.0382 112.73 84.2599 112.622 84.5193C112.514 84.7787 112.486 85.0641 112.541 85.3395C112.596 85.6149 112.731 85.8678 112.93 86.0664C113.129 86.2649 113.383 86.4001 113.659 86.4549C113.934 86.5096 114.22 86.4815 114.48 86.3741C114.74 86.2666 114.962 86.0847 115.119 85.8512C115.275 85.6178 115.358 85.3433 115.358 85.0625C115.358 84.686 115.209 84.325 114.942 84.0587C114.675 83.7925 114.313 83.6429 113.936 83.6429Z" fill="white"/>
<path d="M113.936 89.3721C113.655 89.3721 113.38 89.4553 113.146 89.6113C112.912 89.7673 112.73 89.989 112.622 90.2484C112.514 90.5078 112.486 90.7932 112.541 91.0686C112.596 91.344 112.731 91.5969 112.93 91.7955C113.129 91.994 113.383 92.1292 113.659 92.184C113.934 92.2388 114.22 92.2106 114.48 92.1032C114.74 91.9958 114.962 91.8138 115.119 91.5803C115.275 91.3469 115.358 91.0724 115.358 90.7917C115.358 90.4152 115.209 90.0541 114.942 89.7879C114.675 89.5216 114.313 89.3721 113.936 89.3721Z" fill="white"/>
<path d="M109.076 83.6429H102.201V86.4821H109.076C109.453 86.4821 109.815 86.3326 110.082 86.0664C110.349 85.8001 110.499 85.439 110.499 85.0625C110.499 84.686 110.349 84.325 110.082 84.0587C109.815 83.7925 109.453 83.6429 109.076 83.6429Z" fill="white"/>
<path d="M125.668 83.6429H118.796C118.419 83.6429 118.057 83.7925 117.791 84.0587C117.524 84.325 117.374 84.686 117.374 85.0625C117.374 85.439 117.524 85.8001 117.791 86.0663C118.057 86.3326 118.419 86.4821 118.796 86.4821H125.668V83.6429Z" fill="white"/>
<path d="M109.076 89.3721H102.201V92.2113H109.076C109.453 92.2113 109.815 92.0617 110.082 91.7955C110.349 91.5293 110.499 91.1682 110.499 90.7917C110.499 90.4152 110.349 90.0541 110.082 89.7879C109.815 89.5216 109.453 89.3721 109.076 89.3721Z" fill="white"/>
<path d="M125.668 89.3721H118.796C118.419 89.3721 118.057 89.5216 117.791 89.7879C117.524 90.0541 117.374 90.4152 117.374 90.7917C117.374 91.1682 117.524 91.5293 117.791 91.7955C118.057 92.0617 118.419 92.2113 118.796 92.2113H125.668V89.3721Z" fill="white"/>
<path d="M125.667 76.6699C125.694 75.1154 125.41 73.5712 124.832 72.1273C124.254 70.6835 123.394 69.3689 122.302 68.2602C121.21 67.1515 119.907 66.271 118.471 65.6699C117.034 65.0688 115.492 64.7593 113.934 64.7593C112.376 64.7593 110.834 65.0688 109.397 65.6699C107.961 66.271 106.658 67.1515 105.566 68.2602C104.474 69.3689 103.614 70.6835 103.036 72.1273C102.458 73.5712 102.174 75.1154 102.201 76.6699V100.09C102.253 103.161 103.512 106.089 105.707 108.242C107.902 110.396 110.856 111.603 113.934 111.603C117.012 111.603 119.966 110.396 122.161 108.242C124.356 106.089 125.615 103.161 125.667 100.09V76.6699Z" stroke="#263238" stroke-width="0.969642" stroke-miterlimit="10"/>
<path d="M102.201 100.09C102.253 103.161 103.513 106.089 105.707 108.242C107.902 110.396 110.857 111.603 113.934 111.603C117.012 111.603 119.967 110.396 122.161 108.242C124.356 106.089 125.615 103.161 125.667 100.09H102.201Z" fill="#263238" stroke="#263238" stroke-width="0.969642" stroke-miterlimit="10"/>
<path d="M213.46 94.1911C228.111 79.5685 228.111 55.8605 213.46 41.2378C198.808 26.6152 175.053 26.6152 160.402 41.2378C145.75 55.8605 145.75 79.5685 160.402 94.1911C175.053 108.814 198.808 108.814 213.46 94.1911Z" fill="#E8E8E8"/>
<path d="M181.551 52.2224H155.341C154.021 52.2224 152.95 53.2908 152.95 54.6087V80.7665C152.95 82.0844 154.021 83.1528 155.341 83.1528H181.551C182.871 83.1528 183.942 82.0844 183.942 80.7665V54.6087C183.942 53.2908 182.871 52.2224 181.551 52.2224Z" fill="white"/>
<g opacity="0.1">
<path opacity="0.1" d="M155.874 83.1562H166.217L172.807 52.2224H162.044L155.464 83.1224C155.599 83.1438 155.736 83.1551 155.874 83.1562Z" fill="black"/>
<path opacity="0.1" d="M177.189 52.2224H174.602L168.015 83.1562H170.602L177.189 52.2224Z" fill="black"/>
</g>
<path d="M181.019 83.9268H155.873C154.894 83.9251 153.957 83.5369 153.264 82.8472C152.572 82.1575 152.181 81.2223 152.178 80.246V55.1394C152.18 54.1619 152.569 53.225 153.262 52.5338C153.954 51.8427 154.893 51.4536 155.873 51.4518H181.019C181.999 51.4527 182.938 51.8414 183.632 52.5326C184.325 53.2239 184.715 54.1613 184.717 55.1394V80.246C184.713 81.2229 184.322 82.1586 183.629 82.8484C182.936 83.5382 181.997 83.926 181.019 83.9268ZM155.873 52.9964C155.303 52.9964 154.756 53.2221 154.353 53.6239C153.95 54.0257 153.723 54.5707 153.722 55.1394V80.246C153.722 80.8156 153.949 81.3618 154.352 81.7649C154.755 82.1679 155.302 82.3948 155.873 82.3957H181.019C181.301 82.3957 181.581 82.3401 181.842 82.232C182.104 82.1239 182.341 81.9655 182.54 81.7659C182.74 81.5662 182.899 81.3292 183.006 81.0684C183.114 80.8076 183.17 80.5282 183.169 80.246V55.1394C183.169 54.8577 183.114 54.5787 183.005 54.3185C182.897 54.0583 182.739 53.8219 182.539 53.6229C182.339 53.4239 182.102 53.2661 181.841 53.1586C181.58 53.0511 181.301 52.996 181.019 52.9964H155.873Z" fill="white" stroke="#263238" stroke-width="0.932567" stroke-miterlimit="10"/>
<path d="M218.002 52.2224H191.792C190.472 52.2224 189.401 53.2908 189.401 54.6087V80.7665C189.401 82.0844 190.472 83.1528 191.792 83.1528H218.002C219.322 83.1528 220.393 82.0844 220.393 80.7665V54.6087C220.393 53.2908 219.322 52.2224 218.002 52.2224Z" fill="white"/>
<g opacity="0.1">
<path opacity="0.1" d="M195.029 83.1562H205.372L211.959 52.2224H201.2L194.603 83.1224C194.744 83.1445 194.886 83.1558 195.029 83.1562Z" fill="black"/>
<path opacity="0.1" d="M216.345 52.2224H213.757L207.167 83.1562H209.758L216.345 52.2224Z" fill="black"/>
</g>
<path d="M217.47 83.9268H192.324C191.346 83.9251 190.408 83.5369 189.715 82.8472C189.023 82.1575 188.632 81.2223 188.629 80.246V55.1394C188.631 54.1619 189.021 53.225 189.713 52.5338C190.406 51.8427 191.344 51.4536 192.324 51.4518H217.47C218.45 51.4527 219.389 51.8414 220.083 52.5326C220.776 53.2239 221.166 54.1613 221.168 55.1394V80.246C221.164 81.2229 220.773 82.1586 220.08 82.8484C219.387 83.5382 218.449 83.926 217.47 83.9268ZM192.324 52.9964C191.754 52.9964 191.208 53.2221 190.804 53.6239C190.401 54.0257 190.174 54.5707 190.173 55.1394V80.246C190.173 80.8156 190.4 81.3618 190.803 81.7649C191.206 82.1679 191.753 82.3948 192.324 82.3957H217.47C217.752 82.3957 218.032 82.3401 218.294 82.232C218.555 82.1239 218.792 81.9655 218.992 81.7659C219.191 81.5662 219.35 81.3292 219.458 81.0684C219.565 80.8076 219.621 80.5282 219.62 80.246V55.1394C219.62 54.8577 219.565 54.5787 219.457 54.3185C219.348 54.0583 219.19 53.8219 218.99 53.6229C218.79 53.4239 218.553 53.2661 218.293 53.1586C218.032 53.0511 217.752 52.996 217.47 52.9964H192.324Z" fill="white" stroke="#263238" stroke-width="0.932567" stroke-miterlimit="10"/>
<path d="M187.945 139.893C197.265 139.893 204.821 138.784 204.821 137.415C204.821 136.047 197.265 134.938 187.945 134.938C178.625 134.938 171.069 136.047 171.069 137.415C171.069 138.784 178.625 139.893 187.945 139.893Z" fill="#E8E8E8"/>
<path d="M195.403 122.983C195.403 122.983 195.359 129.922 194.624 131.064C193.747 132.416 193.124 134.306 195.447 134.82C197.77 135.333 199.152 137.892 201.919 138.061C204.686 138.23 204.967 137.047 203.761 136.097C202.555 135.147 199.494 132.514 199.091 131.233C198.688 129.952 199.47 122.983 199.47 122.983H195.403Z" fill="white"/>
<path opacity="0.1" d="M199.1 127.012C199.249 124.967 199.47 122.983 199.47 122.983H195.406C195.406 122.983 195.406 124.757 195.287 126.66C196.546 126.883 197.822 127 199.1 127.012Z" fill="black"/>
<path d="M195.403 122.983C195.403 122.983 195.359 129.922 194.624 131.064C193.747 132.416 193.124 134.306 195.447 134.82C197.77 135.333 199.152 137.892 201.919 138.061C204.686 138.23 204.967 137.047 203.761 136.097C202.555 135.147 199.494 132.514 199.091 131.233C198.688 129.952 199.47 122.983 199.47 122.983H195.403Z" stroke="#263238" stroke-width="0.932567" stroke-linecap="round" stroke-linejoin="round"/>
<path d="M203.747 136.097C202.618 135.204 201.546 134.241 200.537 133.214C199.572 133.944 196.744 133.255 195.911 132.599C194.895 131.801 195.108 131.392 194.627 131.034L194.61 131.064C193.733 132.416 193.11 134.306 195.433 134.82C197.756 135.333 199.138 137.892 201.905 138.061C204.672 138.23 204.96 137.03 203.747 136.097Z" fill="#BFBFBF" stroke="#263238" stroke-width="0.932567" stroke-miterlimit="10"/>
<path d="M179.78 120.468C179.78 120.468 176.732 126.816 175.58 127.59C174.188 128.516 172.807 130.006 174.713 131.335C176.62 132.663 176.789 135.523 179.252 136.702C181.714 137.882 182.482 136.885 181.788 135.583C181.094 134.282 179.417 130.72 179.604 129.395C179.79 128.07 183.539 121.82 183.539 121.82L179.78 120.468Z" fill="white"/>
<path opacity="0.1" d="M179.78 120.468C179.78 120.468 178.689 122.746 177.568 124.737C178.473 125.632 179.516 126.378 180.657 126.944C181.825 124.686 183.539 121.83 183.539 121.83L179.78 120.468Z" fill="black"/>
<path d="M179.78 120.468C179.78 120.468 176.732 126.816 175.58 127.59C174.188 128.516 172.807 130.006 174.713 131.335C176.62 132.663 176.789 135.523 179.252 136.702C181.714 137.882 182.482 136.885 181.788 135.583C181.094 134.282 179.417 130.72 179.604 129.395C179.79 128.07 183.539 121.82 183.539 121.82L179.78 120.468Z" stroke="#263238" stroke-width="0.932567" stroke-linecap="round" stroke-linejoin="round"/>
<path d="M181.788 135.566C181.139 134.328 180.574 133.047 180.095 131.734C178.893 132.048 176.393 130.442 176.119 129.462C175.587 127.573 175.902 128.059 175.614 127.552L175.587 127.573C174.195 128.499 172.814 129.989 174.72 131.318C176.627 132.646 176.796 135.506 179.258 136.685C181.72 137.865 182.482 136.868 181.788 135.566Z" fill="#BFBFBF" stroke="#263238" stroke-width="0.932567" stroke-miterlimit="10"/>
<path d="M195.894 75.5511C195.894 75.5511 200.557 97.8592 200.869 105.136C201.18 112.413 199.968 125.393 199.968 125.393L194.79 125.055C194.79 125.055 194.756 121.218 194.238 115.878C193.93 112.704 192.961 109 193.069 105.255C193.069 105.255 188.149 90.6902 188.328 84.2986C188.508 77.907 188.328 76.0683 188.328 76.0683L195.894 75.5511Z" fill="#263238" stroke="#263238" stroke-width="0.932567" stroke-linecap="round" stroke-linejoin="round"/>
<path d="M183.427 75.5513C183.427 75.5513 178.591 79.5397 181.395 87.5807C182.499 90.7714 186.759 105.366 186.759 105.366C185.589 106.702 184.598 108.185 183.813 109.777C181.869 113.61 180.453 119.579 178.056 123.003L181.605 125.393C181.605 125.393 193.065 111.055 193.797 106.502C194.528 101.949 191.088 83.7444 191.088 83.7444L189.987 76.3456L183.427 75.5513Z" fill="#263238" stroke="#263238" stroke-width="0.932567" stroke-linecap="round" stroke-linejoin="round"/>
<path d="M204.875 60.4325C204.811 59.6769 204.556 58.95 204.133 58.32C204.488 57.8537 204.796 57.3532 205.051 56.826C205.308 56.2075 204.966 55.332 204.252 56.3798C203.537 57.4276 202.752 58.1915 203.036 59.4996C203.186 60.3441 203.032 61.2141 202.603 61.9569L204.252 63.2446L207.54 60.642L204.875 60.4325Z" fill="white" stroke="#263238" stroke-width="0.932567" stroke-linecap="round" stroke-linejoin="round"/>
<path d="M206.424 53.7465L203.659 54.4967C203.405 54.5657 203.254 54.8276 203.324 55.0816L204.899 60.8644C204.968 61.1184 205.23 61.2683 205.485 61.1993L208.25 60.4491C208.504 60.38 208.654 60.1181 208.585 59.8641L207.01 54.0813C206.941 53.8273 206.678 53.6774 206.424 53.7465Z" fill="#263238" stroke="#263238" stroke-width="0.932567" stroke-linecap="round" stroke-linejoin="round"/>
<path d="M207.03 54.1532L203.344 55.1534L204.881 60.796L208.567 59.7957L207.03 54.1532Z" fill="#E8E8E8" stroke="#263238" stroke-width="0.932567" stroke-linecap="round" stroke-linejoin="round"/>
<path d="M206.291 56.1061C206.246 55.9321 206.133 55.7832 205.978 55.6919C205.823 55.6006 205.638 55.5745 205.464 55.6193C205.29 55.6642 205.141 55.7762 205.049 55.9309C204.958 56.0856 204.932 56.2701 204.977 56.4441C205.021 56.6131 205.241 57.4073 205.315 57.6879L206.629 57.333C206.555 57.0727 206.331 56.248 206.291 56.1061Z" fill="#263238"/>
<path d="M206.168 58.249C206.331 58.2051 206.472 58.1021 206.563 57.9602C206.653 57.8183 206.688 57.6476 206.659 57.4817L205.355 57.8197C205.412 57.9802 205.527 58.1135 205.678 58.1931C205.828 58.2727 206.004 58.2926 206.168 58.249Z" fill="#263238"/>
<path d="M207.394 58.952L206.541 59.1852L206.365 58.543C206.608 58.4486 206.807 58.2681 206.924 58.036C207.042 57.8039 207.069 57.5367 207.001 57.2856L206.907 56.9476C206.905 56.9404 206.902 56.9336 206.898 56.9276C206.893 56.9216 206.888 56.9165 206.882 56.9127C206.875 56.9089 206.868 56.9065 206.861 56.9055C206.853 56.9045 206.846 56.9051 206.839 56.9071L206.697 56.9443C206.689 56.9462 206.682 56.9496 206.677 56.9543C206.671 56.9589 206.666 56.9648 206.662 56.9715C206.659 56.9782 206.657 56.9855 206.656 56.9931C206.656 57.0006 206.657 57.0082 206.659 57.0152C206.661 57.0225 206.664 57.0293 206.668 57.0353C206.673 57.0413 206.678 57.0463 206.684 57.0501C206.691 57.0539 206.698 57.0564 206.705 57.0574C206.713 57.0584 206.72 57.0578 206.727 57.0558L206.812 57.0321L206.89 57.3194C206.922 57.4386 206.931 57.563 206.915 57.6855C206.899 57.808 206.86 57.9262 206.798 58.0334C206.737 58.1406 206.655 58.2347 206.557 58.3102C206.459 58.3857 206.347 58.4413 206.228 58.4737C206.108 58.5061 205.984 58.5147 205.861 58.499C205.738 58.4834 205.62 58.4437 205.512 58.3824C205.405 58.321 205.311 58.2391 205.235 58.1414C205.159 58.0437 205.103 57.9321 205.071 57.8129L204.99 57.5256L205.074 57.5053C205.089 57.5007 205.101 57.4908 205.108 57.4777C205.116 57.4646 205.118 57.4491 205.115 57.4344C205.113 57.427 205.11 57.4201 205.105 57.4141C205.1 57.4081 205.095 57.403 205.088 57.3993C205.081 57.3955 205.074 57.3931 205.066 57.3921C205.059 57.3912 205.051 57.3918 205.044 57.3938L204.905 57.431C204.898 57.4329 204.891 57.4363 204.885 57.441C204.879 57.4456 204.874 57.4514 204.87 57.458C204.866 57.4646 204.864 57.4719 204.863 57.4794C204.862 57.487 204.862 57.4946 204.864 57.502L204.959 57.84C205.028 58.0907 205.187 58.3073 205.405 58.4483C205.624 58.5893 205.887 58.6447 206.145 58.6038L206.317 59.246L205.464 59.4759C205.449 59.4798 205.435 59.4866 205.423 59.4959C205.411 59.5051 205.401 59.5167 205.394 59.5299C205.386 59.5431 205.381 59.5577 205.379 59.5728C205.377 59.5879 205.379 59.6032 205.383 59.6178L205.413 59.7294L207.567 59.1446L207.537 59.0331C207.533 59.0184 207.526 59.0046 207.517 58.9926C207.507 58.9805 207.496 58.9704 207.482 58.9629C207.469 58.9553 207.455 58.9505 207.439 58.9486C207.424 58.9467 207.409 58.9479 207.394 58.952Z" fill="#263238"/>
<path d="M207.743 55.4706C207.404 55.5078 207.123 56.0385 207.228 56.7855C207.333 57.5324 208.021 56.7212 208.061 56.4846C208.102 56.248 208.39 55.4064 207.743 55.4706Z" fill="white" stroke="#263238" stroke-width="0.932567" stroke-linecap="round" stroke-linejoin="round"/>
<path d="M208.488 56.586C208.398 56.5846 208.308 56.6035 208.226 56.6413C208.144 56.679 208.072 56.7347 208.014 56.8041C207.957 56.8735 207.916 56.955 207.894 57.0424C207.872 57.1299 207.87 57.2211 207.888 57.3093C207.953 58.036 208.095 57.867 208.095 57.867C208.098 58.1665 208.159 58.4625 208.275 58.7391C208.444 59.0602 208.891 58.5734 208.891 58.2828C208.891 57.9921 208.843 56.4643 208.488 56.586Z" fill="white" stroke="#263238" stroke-width="0.932567" stroke-linecap="round" stroke-linejoin="round"/>
<path d="M208.099 57.8535C208.099 57.8535 208.685 57.6811 208.823 57.2552L208.099 57.8535Z" fill="white"/>
<path d="M208.099 57.8535C208.099 57.8535 208.685 57.6811 208.823 57.2552" stroke="#263238" stroke-width="0.932567" stroke-linecap="round" stroke-linejoin="round"/>
<path d="M203.008 60.9259C203.122 60.4582 203.131 59.9712 203.035 59.4995C202.751 58.1915 203.533 57.4242 204.251 56.3798C204.969 55.3354 205.308 56.2074 205.051 56.826C204.795 57.3532 204.488 57.8536 204.133 58.3199C204.591 58.9319 204.849 59.6691 204.874 60.4324C204.874 60.6792 204.874 61.416 204.874 61.416" fill="white"/>
<path d="M203.008 60.9259C203.122 60.4582 203.131 59.9712 203.035 59.4995C202.751 58.1915 203.533 57.4242 204.251 56.3798C204.969 55.3354 205.308 56.2074 205.051 56.826C204.795 57.3532 204.488 57.8536 204.133 58.3199C204.591 58.9319 204.849 59.6691 204.874 60.4324C204.874 60.6792 204.874 61.416 204.874 61.416" stroke="#263238" stroke-width="0.932567" stroke-linecap="round" stroke-linejoin="round"/>
<path d="M193.926 52.7565C195.105 52.5098 195.467 52.209 195.467 52.209C194.583 48.6566 197.753 36.7083 187.762 36.1573C177.772 35.6064 183.36 52.5368 183.36 52.5368L184.447 52.6754L183.888 49.2717L185.188 52.7599C189.036 53.1756 191.501 53.0979 193.052 52.9019C192.842 51.3667 192.82 49.8116 192.988 48.2712C193.183 49.7884 193.497 51.288 193.926 52.7565Z" fill="#263238"/>
<path d="M187.758 36.3702C187.37 35.9857 186.864 35.7431 186.32 35.6817C185.777 35.6204 185.229 35.7439 184.765 36.0322" stroke="#263238" stroke-width="0.932567" stroke-linecap="round" stroke-linejoin="round"/>
<path d="M195.368 54.9226V54.8149C195.348 54.862 195.328 54.8957 195.368 54.9226Z" fill="white" stroke="#263238" stroke-width="0.932567" stroke-linecap="round" stroke-linejoin="round"/>
<path d="M202.602 61.9569L197.861 66.3509L197.949 59.7667C197.965 58.7723 197.728 57.7901 197.262 56.9113C196.795 56.0326 196.114 55.2859 195.28 54.7406L195.46 72.0699C200.116 72.3639 204.265 63.2447 204.265 63.2447C204.096 62.924 203.86 62.6432 203.573 62.4211C203.287 62.1989 202.955 62.0407 202.602 61.9569Z" fill="white"/>
<path opacity="0.1" d="M197.133 69.9438C196.428 70.008 196.269 68.6628 196.279 67.3547C196.082 67.8469 195.951 68.3629 195.89 68.8893C195.829 70.3798 195.829 71.8569 195.853 73.121C201.156 70.7212 201.22 68.5817 202.582 66.3982C201.715 67.4967 198.491 69.8188 197.133 69.9438Z" fill="black"/>
<path d="M202.602 61.9569L197.861 66.3509L197.949 59.7667C197.965 58.7723 197.728 57.7901 197.262 56.9113C196.795 56.0326 196.114 55.2859 195.28 54.7406L195.46 72.0699C200.116 72.3639 204.265 63.2447 204.265 63.2447C204.096 62.924 203.86 62.6432 203.573 62.4211C203.287 62.1989 202.955 62.0407 202.602 61.9569V61.9569Z" stroke="#263238" stroke-width="0.932567" stroke-linecap="round" stroke-linejoin="round"/>
<path d="M201.597 62.5246L202.636 61.541L204.916 63.1026L204.252 64.2045L201.597 62.5246Z" fill="#E8E8E8" stroke="#263238" stroke-width="0.932567" stroke-linecap="round" stroke-linejoin="round"/>
<path d="M197.153 63.008C195.243 71.458 196.191 77.0114 196.191 77.0114C196.191 77.0114 191.582 80.2731 181.893 77.5082C181.893 77.5082 183.654 73.1379 183.179 69.8052C182.892 67.7536 180.961 60.3784 180.961 60.3784C180.961 60.3784 180.047 57.1539 180.467 54.5513C181.276 54.0274 183.01 53.3953 186.075 53.1722C186.126 53.0012 186.161 52.8258 186.18 52.6483C186.277 51.7889 186.299 50.9225 186.244 50.0592C186.2 49.0452 186.116 48.2374 186.116 48.2374H189.814C189.814 48.2374 189.861 49.1703 189.98 50.2654C190.044 50.911 190.136 51.6174 190.251 52.2258C190.308 52.5304 190.381 52.8316 190.471 53.1283C194.162 53.6826 195.551 54.6425 195.819 55.4774C197.075 59.2427 197.559 61.2031 197.153 63.008Z" fill="white" stroke="#263238" stroke-width="0.932567" stroke-linecap="round" stroke-linejoin="round"/>
<path d="M189.99 50.8603C189.689 51.5363 189.313 52.0704 188.009 52.0636C187.04 52.0636 186.167 51.2085 186.068 50.8806C186.173 50.1404 186.068 49.8666 186.024 49.0284C187.27 48.9933 188.517 49.0657 189.75 49.2447C189.802 49.787 189.883 50.3262 189.99 50.8603Z" fill="#263238"/>
<path d="M192.449 43.6237C192.449 43.1235 192.449 42.8159 192.449 42.8159C192.175 41.5045 190.549 41.4369 189.801 41.4403C189.011 41.4657 188.225 41.3288 187.491 41.038C187.732 41.6119 188.13 42.1063 188.639 42.4644C185.855 41.8459 185.639 40.3789 185.744 39.588C184.755 43.039 183.471 43.1843 183.471 43.1843C183.471 43.1843 183.471 43.4919 183.529 43.9888C183.196 44.0649 182.902 44.2583 182.701 44.5335C182.5 44.8086 182.406 45.1469 182.435 45.4861C182.431 45.8515 182.571 46.2039 182.824 46.4679C183.077 46.7319 183.424 46.8866 183.789 46.8989C183.863 46.8957 183.935 46.8855 184.006 46.8685C184.596 49.1534 185.805 51.6377 188.28 51.5397C190.756 51.4417 191.765 48.8661 192.165 46.5407C192.238 46.5474 192.312 46.5474 192.385 46.5407C192.752 46.5039 193.089 46.3236 193.324 46.0392C193.558 45.7549 193.67 45.3895 193.635 45.023C193.636 44.6873 193.517 44.362 193.3 44.1056C193.083 43.8492 192.781 43.6783 192.449 43.6237Z" fill="white" stroke="#263238" stroke-width="0.932567" stroke-linecap="round" stroke-linejoin="round"/>
<path d="M187.491 47.4938L187.918 47.8013C187.972 47.8414 188.037 47.863 188.104 47.863C188.171 47.863 188.237 47.8414 188.29 47.8013L188.683 47.5005" stroke="#263238" stroke-width="0.932567" stroke-linecap="round" stroke-linejoin="round"/>
<path d="M189.117 45.5707C189.117 45.5707 189.645 44.8744 190.699 45.3645" stroke="#263238" stroke-width="0.932567" stroke-linecap="round" stroke-linejoin="round"/>
<path d="M186.814 45.5707C186.814 45.5707 186.289 44.8744 185.232 45.3645" stroke="#263238" stroke-width="0.932567" stroke-linecap="round" stroke-linejoin="round"/>
<path d="M189.136 48.7208C188.843 48.9529 188.483 49.0861 188.109 49.1012C187.735 49.1164 187.365 49.0128 187.054 48.8053" stroke="#263238" stroke-width="0.932567" stroke-linecap="round" stroke-linejoin="round"/>
<path d="M193.611 107.242C193.491 107.613 193.35 107.977 193.191 108.334" stroke="white" stroke-width="0.932567" stroke-linecap="round" stroke-linejoin="round"/>
<path d="M188.666 82.6121L189.77 83.599C190.755 84.4793 191.403 85.6743 191.602 86.979C192.547 92.9785 194.064 99.147 193.878 105.664" stroke="white" stroke-width="0.932567" stroke-linecap="round" stroke-linejoin="round"/>
<path d="M192.846 82.7877L191.095 85.2856L191.315 84.978" stroke="white" stroke-width="0.932567" stroke-linecap="round" stroke-linejoin="round"/>
<path d="M185.927 72.7661L186.428 73.2799" stroke="#263238" stroke-width="0.932567" stroke-linecap="round" stroke-linejoin="round"/>
<path d="M182.3 65.6851C182.827 67.8412 183.765 69.8758 185.063 71.6778" stroke="#263238" stroke-width="0.932567" stroke-linecap="round" stroke-linejoin="round"/>
<path d="M182.397 42.8282L182.021 42.8433L182.075 44.1773L182.451 44.1622L182.397 42.8282Z" fill="white" stroke="#263238" stroke-width="0.932567" stroke-linecap="round" stroke-linejoin="round"/>
<path d="M193.861 42.3467L193.485 42.3618L193.539 43.6958L193.915 43.6807L193.861 42.3467Z" fill="white" stroke="#263238" stroke-width="0.932567" stroke-linecap="round" stroke-linejoin="round"/>
<path d="M187.704 36.7725C186.109 36.8372 184.601 37.5163 183.497 38.6672C182.393 39.8181 181.779 41.3512 181.784 42.9444C181.785 42.9743 181.791 43.0037 181.803 43.0311C181.815 43.0585 181.833 43.0831 181.854 43.1036C181.876 43.1241 181.902 43.14 181.93 43.1504C181.958 43.1608 181.988 43.1654 182.018 43.1641H182.414C182.472 43.1614 182.527 43.1363 182.567 43.094C182.607 43.0518 182.628 42.9956 182.627 42.9376C182.637 41.5708 183.173 40.2601 184.126 39.2777C185.078 38.2953 186.373 37.7166 187.741 37.6618C189.109 37.607 190.446 38.0803 191.474 38.9834C192.502 39.8865 193.142 41.1501 193.262 42.5117C193.265 42.5694 193.291 42.6234 193.334 42.662C193.377 42.7006 193.434 42.7207 193.492 42.7179H193.888C193.918 42.7171 193.947 42.7102 193.974 42.6977C194.001 42.6852 194.026 42.6674 194.046 42.6453C194.066 42.6231 194.081 42.5972 194.09 42.569C194.1 42.5408 194.104 42.511 194.102 42.4813C193.988 40.8866 193.256 39.3989 192.062 38.3332C190.868 37.2676 189.305 36.7078 187.704 36.7725Z" fill="#E8E8E8" stroke="#263238" stroke-width="0.932567" stroke-linecap="round" stroke-linejoin="round"/>
<path d="M183.089 43.644H183.001C182.745 43.6545 182.495 43.715 182.263 43.8221C182.031 43.9293 181.823 44.0809 181.649 44.2685C181.3 44.6472 181.115 45.149 181.136 45.6636C181.158 46.1781 181.383 46.6632 181.762 47.0122C182.142 47.3611 182.644 47.5453 183.16 47.5243H183.245L183.089 43.644Z" fill="#E8E8E8" stroke="#263238" stroke-width="0.932567" stroke-linecap="round" stroke-linejoin="round"/>
<path d="M183.614 45.5604C183.671 47.0003 183.773 47.9264 183.275 47.9568C182.777 47.9873 182.567 47.0476 182.51 45.5908C182.452 44.1341 182.584 43.2248 183.082 43.191C183.58 43.1572 183.556 44.1205 183.614 45.5604Z" fill="white" stroke="#263238" stroke-width="0.932567" stroke-linecap="round" stroke-linejoin="round"/>
<path d="M192.876 43.2519H192.964C193.219 43.2417 193.474 43.2818 193.714 43.3699C193.954 43.4579 194.174 43.5923 194.361 43.7652C194.549 43.9381 194.701 44.1463 194.808 44.3778C194.915 44.6092 194.976 44.8595 194.986 45.1143C194.996 45.3691 194.956 45.6234 194.868 45.8627C194.779 46.102 194.645 46.3216 194.472 46.5089C194.298 46.6963 194.09 46.8478 193.858 46.9547C193.626 47.0617 193.375 47.122 193.12 47.1322H193.032L192.876 43.2519Z" fill="#E8E8E8" stroke="#263238" stroke-width="0.932567" stroke-linecap="round" stroke-linejoin="round"/>
<path d="M192.49 45.2056C192.547 46.6455 192.524 47.5716 193.022 47.5716C193.519 47.5716 193.651 46.6083 193.594 45.1684C193.536 43.7285 193.326 42.8024 192.832 42.8193C192.337 42.8362 192.432 43.7657 192.49 45.2056Z" fill="white" stroke="#263238" stroke-width="0.932567" stroke-linecap="round" stroke-linejoin="round"/>
<path d="M184.501 44.2929C184.501 44.2929 185.791 43.2283 187.014 44.1915" stroke="#263238" stroke-width="0.932567" stroke-linecap="round" stroke-linejoin="round"/>
<path d="M191.582 44.0801C191.582 44.0801 190.228 43.1235 189.069 44.1815" stroke="#263238" stroke-width="0.932567" stroke-linecap="round" stroke-linejoin="round"/>
<path d="M185.588 52.7024C185.588 52.7024 186.36 54.6358 189.225 55.0684C189.225 55.0684 188.081 57.4344 186.516 56.5049C184.643 55.3963 184.284 53.0945 184.284 53.0945L185.588 52.7024Z" fill="#E8E8E8" stroke="#263238" stroke-width="0.932567" stroke-linecap="round" stroke-linejoin="round"/>
<path d="M190.837 52.9424C190.848 53.4571 190.676 53.959 190.353 54.3602C190.03 54.7613 189.575 55.036 189.069 55.136C189.069 55.136 190.461 57.4141 191.603 56.15C192.744 54.8859 191.857 53.1655 191.857 53.1655L190.837 52.9424Z" fill="#E8E8E8" stroke="#263238" stroke-width="0.932567" stroke-linecap="round" stroke-linejoin="round"/>
<path d="M190.201 59.6517C190.201 59.7186 190.181 59.7839 190.144 59.8395C190.106 59.8951 190.054 59.9384 189.992 59.964C189.93 59.9896 189.862 59.9963 189.796 59.9832C189.73 59.9702 189.67 59.938 189.623 59.8907C189.575 59.8434 189.543 59.7832 189.53 59.7177C189.517 59.6521 189.524 59.5841 189.549 59.5224C189.575 59.4606 189.618 59.4078 189.674 59.3707C189.73 59.3335 189.795 59.3137 189.862 59.3137C189.952 59.3137 190.038 59.3493 190.102 59.4127C190.165 59.4761 190.201 59.5621 190.201 59.6517Z" fill="#E8E8E8" stroke="#263238" stroke-width="0.932567" stroke-linecap="round" stroke-linejoin="round"/>
<path d="M190.661 66.3069C190.661 66.3737 190.641 66.4391 190.604 66.4947C190.566 66.5502 190.514 66.5936 190.452 66.6191C190.39 66.6447 190.322 66.6514 190.256 66.6384C190.19 66.6253 190.13 66.5931 190.083 66.5459C190.035 66.4986 190.003 66.4384 189.99 66.3728C189.977 66.3073 189.984 66.2393 190.009 66.1775C190.035 66.1158 190.078 66.063 190.134 66.0258C190.19 65.9887 190.255 65.9689 190.322 65.9689C190.412 65.9689 190.498 66.0045 190.562 66.0679C190.625 66.1313 190.661 66.2172 190.661 66.3069Z" fill="#E8E8E8" stroke="#263238" stroke-width="0.932567" stroke-linecap="round" stroke-linejoin="round"/>
<path d="M191.094 73.121C191.094 73.1878 191.074 73.2532 191.037 73.3088C191 73.3643 190.947 73.4077 190.885 73.4332C190.823 73.4588 190.755 73.4655 190.69 73.4525C190.624 73.4394 190.564 73.4072 190.516 73.36C190.469 73.3127 190.437 73.2525 190.424 73.1869C190.41 73.1213 190.417 73.0534 190.443 72.9916C190.468 72.9299 190.512 72.8771 190.567 72.8399C190.623 72.8028 190.689 72.783 190.756 72.783C190.845 72.783 190.932 72.8186 190.995 72.882C191.059 72.9453 191.094 73.0313 191.094 73.121Z" fill="#E8E8E8" stroke="#263238" stroke-width="0.932567" stroke-linecap="round" stroke-linejoin="round"/>
<path d="M220.938 27.8053H152.317C151.999 27.8053 151.741 28.0626 151.741 28.3799V29.6136C151.741 29.9309 151.999 30.1882 152.317 30.1882H220.938C221.256 30.1882 221.513 29.9309 221.513 29.6136V28.3799C221.513 28.0626 221.256 27.8053 220.938 27.8053Z" fill="white"/>
<path d="M220.823 30.1882H152.433" stroke="#263238" stroke-width="0.932567" stroke-linecap="round" stroke-linejoin="round"/>
<path d="M152.433 27.8053H220.823" stroke="#263238" stroke-width="0.932567" stroke-linecap="round" stroke-linejoin="round"/>
<path d="M173.721 43.84C173.721 43.84 170.893 43.4446 170.741 44.2017C170.588 44.9588 170.673 46.1723 171.161 46.5677C172.082 47.3181 171.912 48.7208 171.912 48.7208L174.283 48.4909L174.344 47.3079C174.466 46.922 174.684 46.5731 174.977 46.2939C175.831 45.4929 175.492 44.6039 175.346 43.5325C175.201 42.461 174.493 42.9376 174.435 43.4919C174.418 43.9862 174.459 44.4808 174.557 44.9656L173.721 43.84Z" fill="white" stroke="#263238" stroke-width="0.932567" stroke-linecap="round" stroke-linejoin="round"/>
<path d="M174.384 44.8811C174.384 44.8811 173.707 45.0197 173.172 45.9762L174.384 44.8811Z" fill="white"/>
<path d="M174.384 44.8811C174.384 44.8811 173.707 45.0197 173.172 45.9762" stroke="#263238" stroke-width="0.932567" stroke-linecap="round" stroke-linejoin="round"/>
<path d="M174.385 45.1312H170.957C170.72 45.1384 170.484 45.0888 170.269 44.9865C170.055 44.8842 169.868 44.7321 169.724 44.5431C169.602 44.3714 169.536 44.1658 169.536 43.955C169.536 43.7442 169.602 43.5386 169.724 43.3669L171.438 40.8555C171.586 40.669 171.775 40.5184 171.989 40.4148C172.204 40.3112 172.439 40.2574 172.678 40.2574C172.916 40.2574 173.151 40.3112 173.366 40.4148C173.581 40.5184 173.769 40.669 173.917 40.8555L175.634 43.3669C175.757 43.5386 175.823 43.7442 175.823 43.955C175.823 44.1658 175.757 44.3714 175.634 44.5431C175.489 44.735 175.3 44.8888 175.082 44.9912C174.864 45.0937 174.625 45.1417 174.385 45.1312ZM170.321 43.644C170.256 43.7337 170.221 43.8412 170.221 43.9516C170.221 44.0619 170.256 44.1695 170.321 44.2592C170.395 44.357 170.492 44.4356 170.604 44.4885C170.715 44.5414 170.837 44.5671 170.961 44.5634H174.385C174.508 44.5674 174.63 44.5418 174.742 44.4889C174.853 44.436 174.95 44.3572 175.025 44.2592C175.09 44.1697 175.125 44.0621 175.125 43.9516C175.125 43.8411 175.09 43.7335 175.025 43.644L173.311 41.1361C173.236 41.0358 173.139 40.9551 173.026 40.901C172.913 40.8468 172.789 40.8208 172.664 40.8251C172.54 40.8204 172.416 40.8464 172.304 40.9006C172.191 40.9548 172.094 41.0356 172.021 41.1361L170.304 43.6474L170.321 43.644Z" fill="#263238"/>
<path d="M171.645 43.8738C171.821 44.7661 171.713 45.0838 171.306 45.0365C170.9 44.9892 170.49 43.8941 171.052 43.6439C171.614 43.3938 172.068 43.2012 172.068 43.2012C172.248 43.104 172.449 43.0501 172.653 43.0436C172.858 43.0372 173.061 43.0784 173.247 43.164C174.053 42.8834 174.195 43.4682 174.195 43.4682C174.195 43.4682 174.778 45.1582 174.293 45.2156C173.809 45.2731 173.409 43.8062 173.409 43.8062C173.409 43.8062 174.016 45.4151 173.46 45.4421C172.905 45.4691 172.583 43.8805 172.583 43.8805C172.583 43.8805 172.945 45.2765 172.42 45.3238C171.896 45.3711 171.645 43.8738 171.645 43.8738Z" fill="white" stroke="#263238" stroke-width="0.932567" stroke-linecap="round" stroke-linejoin="round"/>
<path d="M172.925 29.5494H172.369V40.646H172.925V29.5494Z" fill="white" stroke="#263238" stroke-width="0.932567" stroke-linecap="round" stroke-linejoin="round"/>
<path d="M173.233 40.4735L172.87 41.0042C172.847 41.0344 172.816 41.0589 172.782 41.0757C172.747 41.0925 172.709 41.1012 172.671 41.1012C172.632 41.1012 172.594 41.0925 172.56 41.0757C172.525 41.0589 172.495 41.0344 172.471 41.0042L172.112 40.4735C172.024 40.3485 172.136 40.193 172.308 40.193H173.033C173.209 40.193 173.318 40.362 173.233 40.4735Z" fill="white" stroke="#263238" stroke-width="0.932567" stroke-linecap="round" stroke-linejoin="round"/>
<path d="M172.969 36.7488H172.377C172.214 36.7488 172.082 36.8804 172.082 37.0428V39.5035C172.082 39.6659 172.214 39.7975 172.377 39.7975H172.969C173.132 39.7975 173.264 39.6659 173.264 39.5035V37.0428C173.264 36.8804 173.132 36.7488 172.969 36.7488Z" fill="white" stroke="#263238" stroke-width="0.932567" stroke-linecap="round" stroke-linejoin="round"/>
<path d="M172.969 27.4233H172.377C172.214 27.4233 172.082 27.555 172.082 27.7174V30.178C172.082 30.3404 172.214 30.4721 172.377 30.4721H172.969C173.132 30.4721 173.264 30.3404 173.264 30.178V27.7174C173.264 27.555 173.132 27.4233 172.969 27.4233Z" fill="white" stroke="#263238" stroke-width="0.932567" stroke-linecap="round" stroke-linejoin="round"/>
<path d="M166.328 45.1312H162.901C162.663 45.1384 162.427 45.0887 162.213 44.9864C161.998 44.8841 161.811 44.7321 161.668 44.543C161.545 44.3713 161.479 44.1657 161.479 43.9549C161.479 43.7441 161.545 43.5385 161.668 43.3668L163.381 40.8555C163.53 40.6689 163.719 40.5183 163.934 40.4147C164.148 40.3111 164.384 40.2573 164.623 40.2573C164.861 40.2573 165.097 40.3111 165.312 40.4147C165.527 40.5183 165.716 40.6689 165.864 40.8555L167.578 43.3668C167.7 43.5385 167.766 43.7441 167.766 43.9549C167.766 44.1657 167.7 44.3713 167.578 44.543C167.433 44.7349 167.243 44.8887 167.026 44.9912C166.808 45.0936 166.568 45.1417 166.328 45.1312ZM162.264 43.644C162.199 43.7336 162.165 43.8412 162.165 43.9515C162.165 44.0619 162.199 44.1695 162.264 44.2591C162.339 44.3569 162.436 44.4356 162.547 44.4885C162.658 44.5414 162.781 44.567 162.904 44.5633H166.331C166.455 44.567 166.578 44.5414 166.69 44.4885C166.802 44.4356 166.899 44.357 166.975 44.2591C167.039 44.1695 167.074 44.0619 167.074 43.9515C167.074 43.8412 167.039 43.7336 166.975 43.644L165.261 41.136C165.187 41.0358 165.089 40.9551 164.976 40.9009C164.863 40.8468 164.739 40.8207 164.614 40.825C164.49 40.8204 164.366 40.8463 164.254 40.9005C164.142 40.9547 164.044 41.0356 163.971 41.136L162.254 43.6473L162.264 43.644Z" fill="#263238"/>
<path d="M164.868 29.5494H164.312V40.646H164.868V29.5494Z" fill="white" stroke="#263238" stroke-width="0.932567" stroke-linecap="round" stroke-linejoin="round"/>
<path d="M165.176 40.4735L164.8 41.0042C164.776 41.0344 164.746 41.0589 164.711 41.0757C164.677 41.0925 164.639 41.1012 164.6 41.1012C164.562 41.1012 164.524 41.0925 164.489 41.0757C164.455 41.0589 164.424 41.0344 164.401 41.0042L164.042 40.4735C163.953 40.3485 164.065 40.193 164.238 40.193H164.963C165.139 40.193 165.261 40.362 165.176 40.4735Z" fill="white" stroke="#263238" stroke-width="0.932567" stroke-linecap="round" stroke-linejoin="round"/>
<path d="M164.913 36.7488H164.32C164.157 36.7488 164.025 36.8804 164.025 37.0428V39.5035C164.025 39.6659 164.157 39.7975 164.32 39.7975H164.913C165.075 39.7975 165.207 39.6659 165.207 39.5035V37.0428C165.207 36.8804 165.075 36.7488 164.913 36.7488Z" fill="white" stroke="#263238" stroke-width="0.932567" stroke-linecap="round" stroke-linejoin="round"/>
<path d="M164.913 27.4233H164.32C164.157 27.4233 164.025 27.555 164.025 27.7174V30.178C164.025 30.3404 164.157 30.4721 164.32 30.4721H164.913C165.075 30.4721 165.207 30.3404 165.207 30.178V27.7174C165.207 27.555 165.075 27.4233 164.913 27.4233Z" fill="white" stroke="#263238" stroke-width="0.932567" stroke-linecap="round" stroke-linejoin="round"/>
<path d="M201.244 45.1312H197.817C197.579 45.139 197.343 45.0896 197.128 44.9872C196.914 44.8849 196.727 44.7326 196.584 44.5431C196.461 44.3714 196.396 44.1658 196.396 43.955C196.396 43.7442 196.461 43.5386 196.584 43.3669L198.298 40.8555C198.446 40.669 198.634 40.5184 198.849 40.4148C199.063 40.3112 199.299 40.2574 199.537 40.2574C199.775 40.2574 200.011 40.3112 200.225 40.4148C200.44 40.5184 200.628 40.669 200.777 40.8555L202.49 43.3669C202.613 43.5386 202.679 43.7442 202.679 43.955C202.679 44.1658 202.613 44.3714 202.49 44.5431C202.346 44.7345 202.157 44.888 201.94 44.9904C201.723 45.0929 201.484 45.1412 201.244 45.1312ZM197.18 43.644C197.115 43.7335 197.08 43.8411 197.08 43.9516C197.08 44.0621 197.115 44.1697 197.18 44.2592C197.255 44.3572 197.352 44.436 197.463 44.4889C197.574 44.5418 197.697 44.5674 197.82 44.5634H201.247C201.371 44.5674 201.493 44.5418 201.604 44.4889C201.716 44.436 201.813 44.3572 201.887 44.2592C201.952 44.1697 201.987 44.0621 201.987 43.9516C201.987 43.8411 201.952 43.7335 201.887 43.644L200.174 41.1361C200.096 41.0389 199.998 40.9604 199.886 40.9065C199.774 40.8526 199.651 40.8246 199.527 40.8246C199.403 40.8246 199.28 40.8526 199.168 40.9065C199.056 40.9604 198.957 41.0389 198.88 41.1361L197.166 43.6474L197.18 43.644Z" fill="#263238"/>
<path d="M199.781 29.5494H199.226V40.646H199.781V29.5494Z" fill="white" stroke="#263238" stroke-width="0.932567" stroke-linecap="round" stroke-linejoin="round"/>
<path d="M200.09 40.4735L199.731 41.0042C199.707 41.0344 199.677 41.0589 199.642 41.0757C199.607 41.0925 199.569 41.1012 199.531 41.1012C199.492 41.1012 199.455 41.0925 199.42 41.0757C199.385 41.0589 199.355 41.0344 199.331 41.0042L198.972 40.4735C198.884 40.3485 198.996 40.193 199.169 40.193H199.893C200.066 40.193 200.178 40.362 200.09 40.4735Z" fill="white" stroke="#263238" stroke-width="0.932567" stroke-linecap="round" stroke-linejoin="round"/>
<path d="M199.829 36.7488H199.236C199.073 36.7488 198.941 36.8804 198.941 37.0428V39.5035C198.941 39.6659 199.073 39.7975 199.236 39.7975H199.829C199.991 39.7975 200.123 39.6659 200.123 39.5035V37.0428C200.123 36.8804 199.991 36.7488 199.829 36.7488Z" fill="white" stroke="#263238" stroke-width="0.932567" stroke-linecap="round" stroke-linejoin="round"/>
<path d="M199.829 27.4233H199.236C199.073 27.4233 198.941 27.555 198.941 27.7174V30.178C198.941 30.3404 199.073 30.4721 199.236 30.4721H199.829C199.991 30.4721 200.123 30.3404 200.123 30.178V27.7174C200.123 27.555 199.991 27.4233 199.829 27.4233Z" fill="white" stroke="#263238" stroke-width="0.932567" stroke-linecap="round" stroke-linejoin="round"/>
<path d="M208.922 45.1312H205.494C205.257 45.1384 205.021 45.0887 204.806 44.9864C204.592 44.8841 204.405 44.7321 204.262 44.543C204.139 44.3713 204.073 44.1657 204.073 43.9549C204.073 43.7441 204.139 43.5385 204.262 43.3668L205.975 40.8555C206.124 40.6689 206.312 40.5183 206.527 40.4147C206.742 40.3111 206.978 40.2573 207.216 40.2573C207.455 40.2573 207.691 40.3111 207.906 40.4147C208.121 40.5183 208.309 40.6689 208.458 40.8555L210.171 43.3668C210.294 43.5385 210.36 43.7441 210.36 43.9549C210.36 44.1657 210.294 44.3713 210.171 44.543C210.026 44.7349 209.837 44.8887 209.619 44.9912C209.402 45.0936 209.162 45.1417 208.922 45.1312ZM204.858 43.644C204.793 43.7336 204.758 43.8412 204.758 43.9515C204.758 44.0619 204.793 44.1695 204.858 44.2591C204.932 44.357 205.03 44.4356 205.141 44.4885C205.252 44.5414 205.374 44.567 205.498 44.5633H208.925C209.049 44.567 209.172 44.5414 209.283 44.4885C209.395 44.4356 209.493 44.357 209.569 44.2591C209.633 44.1695 209.668 44.0619 209.668 43.9515C209.668 43.8412 209.633 43.7336 209.569 43.644L207.855 41.136C207.78 41.0358 207.683 40.9551 207.57 40.9009C207.457 40.8468 207.333 40.8207 207.208 40.825C207.083 40.8204 206.96 40.8463 206.847 40.9005C206.735 40.9547 206.638 41.0356 206.565 41.136L204.847 43.6473L204.858 43.644Z" fill="#263238"/>
<path d="M207.463 29.5493H206.907V40.6459H207.463V29.5493Z" fill="white" stroke="#263238" stroke-width="0.932567" stroke-linecap="round" stroke-linejoin="round"/>
<path d="M207.771 40.4735L207.409 41.0042C207.385 41.0344 207.354 41.0589 207.32 41.0757C207.285 41.0925 207.247 41.1012 207.209 41.1012C207.17 41.1012 207.132 41.0925 207.098 41.0757C207.063 41.0589 207.033 41.0344 207.009 41.0042L206.65 40.4735C206.562 40.3485 206.674 40.193 206.846 40.193H207.571C207.747 40.193 207.856 40.362 207.771 40.4735Z" fill="white" stroke="#263238" stroke-width="0.932567" stroke-linecap="round" stroke-linejoin="round"/>
<path d="M207.506 36.7488H206.914C206.751 36.7488 206.619 36.8804 206.619 37.0428V39.5035C206.619 39.6659 206.751 39.7975 206.914 39.7975H207.506C207.669 39.7975 207.801 39.6659 207.801 39.5035V37.0428C207.801 36.8804 207.669 36.7488 207.506 36.7488Z" fill="white" stroke="#263238" stroke-width="0.932567" stroke-linecap="round" stroke-linejoin="round"/>
<path d="M207.506 27.4233H206.914C206.751 27.4233 206.619 27.555 206.619 27.7174V30.178C206.619 30.3404 206.751 30.4721 206.914 30.4721H207.506C207.669 30.4721 207.801 30.3404 207.801 30.178V27.7174C207.801 27.555 207.669 27.4233 207.506 27.4233Z" fill="white" stroke="#263238" stroke-width="0.932567" stroke-linecap="round" stroke-linejoin="round"/>
<path d="M174.649 47.9569L174.828 49.4002L171.144 49.5725L171.452 48.1259L174.649 47.9569Z" fill="#E8E8E8" stroke="#263238" stroke-width="0.932567" stroke-linecap="round" stroke-linejoin="round"/>
<path d="M180.898 60.0877C180.898 60.0877 174.5 65.9588 173.024 66.05C172.661 66.0737 172.346 66.3002 172.041 66.094C171.364 65.6343 170.385 64.6609 170.528 60.7063C170.602 58.5431 171.913 49.5286 171.913 49.5286L174.283 49.4238L174.859 59.5638C176.891 57.4615 180.423 54.5479 180.427 54.5479C181.531 58.0699 180.898 60.0877 180.898 60.0877Z" fill="white" stroke="#263238" stroke-width="0.932567" stroke-linecap="round" stroke-linejoin="round"/>
<path d="M197.031 68.2504C197.191 67.5493 197.494 66.8887 197.922 66.3103L197.031 68.2504Z" fill="white"/>
<path d="M197.031 68.2504C197.191 67.5493 197.494 66.8887 197.922 66.3103" stroke="#263238" stroke-width="0.932567" stroke-linecap="round" stroke-linejoin="round"/>
<path d="M174.134 61.9501C174.381 61.8385 174.97 60.74 174.848 58.8641" stroke="#263238" stroke-width="0.932567" stroke-linecap="round" stroke-linejoin="round"/>
<path d="M176.406 37.8709V33.8318C176.407 33.6367 176.485 33.4498 176.623 33.3118C176.762 33.1738 176.949 33.0959 177.145 33.095H183.498C183.693 33.0959 183.881 33.1738 184.019 33.3118C184.157 33.4498 184.235 33.6367 184.236 33.8318V37.8709C184.236 38.0663 184.158 38.2538 184.02 38.3919C183.881 38.5301 183.694 38.6078 183.498 38.6078H181.286L181.463 40.1457H180.321V41.5991L178.967 39.2331H180.074L179.959 38.6111H177.141C177.044 38.6107 176.948 38.5912 176.859 38.5538C176.769 38.5163 176.688 38.4617 176.62 38.3929C176.552 38.3242 176.498 38.2427 176.461 38.1531C176.424 38.0636 176.406 37.9677 176.406 37.8709Z" fill="white" stroke="#263238" stroke-width="0.932567" stroke-linecap="round" stroke-linejoin="round"/>
<path d="M181.913 34.4774H177.619" stroke="#263238" stroke-width="0.932567" stroke-linecap="round" stroke-linejoin="round"/>
<path d="M183.024 35.6233H177.619" stroke="#263238" stroke-width="0.932567" stroke-linecap="round" stroke-linejoin="round"/>
<path d="M182.191 36.7657H177.619" stroke="#263238" stroke-width="0.932567" stroke-linecap="round" stroke-linejoin="round"/>
<path d="M35.1043 137.841C43.8372 137.841 50.9167 136.802 50.9167 135.519C50.9167 134.237 43.8372 133.197 35.1043 133.197C26.3714 133.197 19.292 134.237 19.292 135.519C19.292 136.802 26.3714 137.841 35.1043 137.841Z" fill="#E8E8E8"/>
<path d="M33.7186 98.5149C48.9269 98.5149 61.2556 86.2104 61.2556 71.0321C61.2556 55.8538 48.9269 43.5493 33.7186 43.5493C18.5104 43.5493 6.18164 55.8538 6.18164 71.0321C6.18164 86.2104 18.5104 98.5149 33.7186 98.5149Z" fill="#E8E8E8"/>
<path d="M21.0188 89.0037C21.0188 89.0037 21.7198 93.0597 19.3525 97.6193H48.9554C48.9554 97.6193 47.6007 95.4933 46.1817 89.0037H21.0188Z" fill="white" stroke="#263238" stroke-width="0.87381" stroke-linecap="round" stroke-linejoin="round"/>
<path d="M27.7685 89.9399C26.1481 90.0694 24.595 90.6429 23.2804 91.5971C21.9657 92.5514 20.9405 93.8493 20.3178 95.3479C19.9995 96.1185 19.6676 96.8993 19.3526 97.6294C17.5509 101.79 19.2544 107.844 23.8603 107.844H44.9795C49.1553 107.844 50.2966 102.568 49.2975 98.5927C48.654 96.0374 47.357 93.472 45.1421 91.6738C42.1821 89.2571 33.5326 89.4802 27.7685 89.9399Z" fill="#263238" stroke="#263238" stroke-width="0.87381" stroke-linecap="round" stroke-linejoin="round"/>
<path d="M7.60398 85.4749C7.60398 85.4749 3.81769 87.7598 3.69238 89.0036H8.3355L10.1812 87.682L9.55809 89.0104H10.9703C10.9703 89.0104 12.4706 87.8476 12.5519 86.5599L12.3995 85.4749L9.69017 84.2716L7.60398 85.4749Z" fill="white" stroke="#263238" stroke-width="0.87381" stroke-linecap="round" stroke-linejoin="round"/>
<path d="M51.9561 77.0824C51.9561 77.0824 51.3499 73.1042 50.0189 67.3751C48.6879 61.646 46.087 61.1964 46.087 61.1964H46.0633C42.6766 59.743 33.8713 58.9589 33.8713 58.9589H33.4649C33.4649 58.9589 24.6392 59.743 21.2729 61.1964H21.2492C21.2492 61.1964 18.6245 61.6561 17.2935 67.3751C15.9626 73.094 15.353 77.0824 15.353 77.0824C15.353 77.0824 12.9485 77.7314 8.6203 83.1664C7.94077 84.0283 7.36239 84.965 6.89648 85.9583C6.89648 85.9583 10.2222 84.8666 12.5522 86.5397C12.5522 86.5397 20.1858 83.3084 20.5685 79.9013C20.5685 79.7797 20.5989 79.6445 20.6159 79.4991C20.8326 84.6705 21.0189 88.9902 21.0189 88.9902H46.2902C46.2902 88.9902 46.4798 84.6705 46.6966 79.4991C46.6966 79.6445 46.7271 79.7797 46.7406 79.9013C47.1267 83.3084 55.5764 87.1278 55.5764 87.1278C57.8929 83.572 61.2559 85.5358 61.2559 85.5358L51.9561 77.0824Z" fill="white"/>
<path opacity="0.3" d="M20.569 79.908C20.569 79.8066 20.5961 79.6917 20.6096 79.57L20.0576 67.6014C20.0576 67.6014 18.5336 67.9124 18.9705 71.5865C19.4074 75.2605 20.3251 74.6285 19.8137 76.0447C19.3024 77.4609 17.3178 75.8385 16.6608 77.0587C16.0037 78.2789 20.3319 78.0186 18.5437 81.162C16.7556 84.3054 12.5527 86.57 12.5527 86.57C12.5527 86.57 20.1897 83.3218 20.569 79.908Z" fill="black"/>
<g opacity="0.3">
<path opacity="0.3" d="M46.8594 79.908C46.8594 79.8066 47.8551 79.9823 46.8594 79.908L47.1608 69.6632C47.1608 69.6632 47.0863 74.6183 47.618 76.0446C48.1497 77.471 50.114 75.8385 50.7676 77.0586C51.4212 78.2788 47.0964 78.0186 48.888 81.162C50.6795 84.3054 54.8756 86.57 54.8756 86.57C54.8756 86.57 47.2455 83.3218 46.8594 79.908Z" fill="black"/>
</g>
<path opacity="0.3" d="M46.4733 82.2402C46.3074 86.1171 46.1821 89.0002 46.1821 89.0002H23.4609C38.7009 89.0002 46.4903 82.2402 46.4903 82.2402H46.4733Z" fill="black"/>
<path d="M51.9561 77.0824C51.9561 77.0824 51.3499 73.1042 50.0189 67.3751C48.6879 61.646 46.087 61.1964 46.087 61.1964H46.0633C42.6766 59.743 33.8713 58.9589 33.8713 58.9589H33.4649C33.4649 58.9589 24.6392 59.743 21.2729 61.1964H21.2492C21.2492 61.1964 18.6245 61.6561 17.2935 67.3751C15.9626 73.094 15.353 77.0824 15.353 77.0824C15.353 77.0824 12.9485 77.7314 8.6203 83.1664C7.94077 84.0283 7.36239 84.965 6.89648 85.9583V85.9583C6.89648 85.9583 10.2222 84.8666 12.5522 86.5397C12.5522 86.5397 20.1858 83.3084 20.5685 79.9013C20.5685 79.7797 20.5989 79.6445 20.6159 79.4991C20.8326 84.6705 21.0189 88.9902 21.0189 88.9902H46.2902C46.2902 88.9902 46.4798 84.6705 46.6966 79.4991C46.6966 79.6445 46.7271 79.7797 46.7406 79.9013C47.1267 83.3084 55.5764 87.1278 55.5764 87.1278C57.8929 83.572 61.2559 85.5358 61.2559 85.5358L51.9561 77.0824Z" stroke="#263238" stroke-width="0.87381" stroke-linecap="round" stroke-linejoin="round"/>
<path d="M16.1621 77.0587C17.3808 76.9977 18.5752 77.4136 19.4912 78.2181" stroke="#263238" stroke-width="0.87381" stroke-linecap="round" stroke-linejoin="round"/>
<path d="M18.543 67.9598C18.543 67.9598 20.1076 68.2978 20.4666 75.8893L19.9958 65.925" stroke="#263238" stroke-width="0.87381" stroke-linecap="round" stroke-linejoin="round"/>
<path d="M20.4873 76.9438L20.5586 78.4817" stroke="#263238" stroke-width="0.87381" stroke-linecap="round" stroke-linejoin="round"/>
<path d="M51.1504 77.0587C49.9341 76.993 48.7399 77.4028 47.8213 78.2012" stroke="#263238" stroke-width="0.87381" stroke-linecap="round" stroke-linejoin="round"/>
<path d="M47.2217 67.9598C47.2511 67.2838 47.2828 66.6078 47.3168 65.9318" stroke="#263238" stroke-width="0.87381" stroke-linecap="round" stroke-linejoin="round"/>
<path d="M38.3988 59.5063C37.9891 61.5546 36.0045 62.2948 33.6135 62.2948C31.2225 62.2948 29.2447 61.558 28.8281 59.5164H28.923C29.1706 59.4828 29.4022 59.3749 29.5873 59.2072C29.7723 59.0394 29.902 58.8196 29.9593 58.5768C29.9925 58.4799 30.0096 58.3783 30.0101 58.276V55.8728H37.3253V58.276C37.3244 58.4262 37.352 58.5753 37.4066 58.7154C37.4854 58.9241 37.6192 59.1077 37.7938 59.2469C37.9685 59.3861 38.1775 59.4757 38.3988 59.5063Z" fill="white"/>
<path d="M37.2648 57.6711C36.0524 58.8609 34.7011 59.6011 33.3972 59.6586C32.0425 59.7194 30.4711 58.6108 29.8311 57.5224C29.8575 57.4278 29.8701 57.3299 29.8683 57.2317V56.4949L37.1835 56.5726V57.2317C37.1835 57.3872 37.3698 57.5697 37.2648 57.6711Z" fill="#263238"/>
<path d="M38.3988 59.5063C37.9891 61.5546 36.0045 62.2948 33.6135 62.2948C31.2225 62.2948 29.2447 61.558 28.8281 59.5164H28.923C29.1706 59.4828 29.4022 59.3749 29.5873 59.2072C29.7723 59.0394 29.902 58.8196 29.9593 58.5768C29.9925 58.4799 30.0096 58.3783 30.0101 58.276V55.8728H37.3253V58.276C37.3244 58.4262 37.352 58.5753 37.4065 58.7154C37.4854 58.9241 37.6192 59.1077 37.7938 59.2469C37.9685 59.3861 38.1775 59.4757 38.3988 59.5063V59.5063Z" stroke="#263238" stroke-width="0.87381" stroke-linecap="round" stroke-linejoin="round"/>
<path d="M28.2698 50.7116C28.2698 50.7116 25.7332 47.8488 26.0651 43.9043C26.397 39.9598 29.6414 39.9598 29.6414 39.9598C29.6414 39.9598 33.553 36.5156 37.9184 38.6721C42.2838 40.8285 41.9824 48.3051 38.7516 50.1641L28.2698 50.7116Z" fill="#263238"/>
<path d="M39.4529 48.785C39.4867 48.1293 39.4833 47.7237 39.4833 47.7237C39.1921 45.9796 37.0551 45.8039 36.073 45.7734C31.9582 45.6349 30.8744 43.1168 30.8744 43.1168C28.3785 42.3698 27.6706 47.7237 27.6706 47.7237C27.6706 47.7237 27.6706 48.1293 27.7045 48.785C27.2636 48.869 26.8677 49.1085 26.5892 49.4598C26.3106 49.811 26.1679 50.2506 26.1873 50.6981C26.1873 51.7662 26.9594 52.6281 27.9145 52.6281C28.0111 52.6276 28.1074 52.6186 28.2024 52.6011L28.6494 55.1158C28.7341 55.6802 29.2658 57.0153 29.7433 57.333C30.7593 58.009 32.368 58.9723 33.577 58.9723C34.6201 58.9723 36.0831 58.1138 37.1635 57.5291C37.7663 57.1911 38.4301 55.8965 38.4877 55.2172L38.7688 52.6754C38.9275 52.6678 39.0858 52.652 39.2429 52.6281C40.1945 52.6281 40.9701 51.7662 40.9701 50.6981C40.9894 50.2506 40.8468 49.811 40.5682 49.4598C40.2896 49.1085 39.8938 48.869 39.4529 48.785Z" fill="white" stroke="#263238" stroke-width="0.87381" stroke-linecap="round" stroke-linejoin="round"/>
<path d="M26.8504 47.1626H26.4033V48.7512H26.8504V47.1626Z" fill="white" stroke="#263238" stroke-width="0.87381" stroke-linecap="round" stroke-linejoin="round"/>
<path d="M40.5095 47.1626H40.0625V48.7512H40.5095V47.1626Z" fill="white" stroke="#263238" stroke-width="0.87381" stroke-linecap="round" stroke-linejoin="round"/>
<path d="M33.4543 40.2235C31.5531 40.2231 29.7259 40.9588 28.3571 42.2757C26.9883 43.5926 26.1847 45.3881 26.1154 47.2843C26.1141 47.3196 26.1199 47.3549 26.1326 47.3878C26.1453 47.4208 26.1646 47.4509 26.1893 47.4762C26.214 47.5015 26.2436 47.5215 26.2763 47.535C26.3091 47.5485 26.3442 47.5552 26.3796 47.5547H26.8537C26.9226 47.5548 26.9888 47.5279 27.0382 47.4799C27.0875 47.4319 27.1161 47.3666 27.1179 47.2978C27.1933 45.6712 27.8938 44.1361 29.0738 43.0116C30.2539 41.8871 31.8227 41.2596 33.4543 41.2596C35.0859 41.2596 36.6548 41.8871 37.8348 43.0116C39.0149 44.1361 39.7154 45.6712 39.7908 47.2978C39.7934 47.3669 39.8228 47.4322 39.8727 47.4801C39.9226 47.528 39.9891 47.5548 40.0583 47.5547H40.5291C40.5646 47.5552 40.5999 47.5485 40.6328 47.535C40.6657 47.5216 40.6955 47.5016 40.7205 47.4764C40.7455 47.4511 40.7651 47.4211 40.7782 47.3881C40.7913 47.3551 40.7976 47.3198 40.7966 47.2843C40.7265 45.3878 39.9222 43.5923 38.5529 42.2755C37.1835 40.9587 35.3559 40.2231 33.4543 40.2235Z" fill="white" stroke="#263238" stroke-width="0.87381" stroke-linecap="round" stroke-linejoin="round"/>
<path d="M27.6131 48.1801H27.5115C26.912 48.2029 26.3447 48.4567 25.9287 48.8881C25.5127 49.3195 25.2803 49.8949 25.2803 50.4937C25.2803 51.0924 25.5127 51.6679 25.9287 52.0993C26.3447 52.5306 26.912 52.7844 27.5115 52.8073H27.6131V48.1801Z" fill="#263238" stroke="#263238" stroke-width="0.87381" stroke-miterlimit="10"/>
<path d="M28.1646 50.5021C28.1646 52.2158 28.2391 53.3312 27.6465 53.3312C27.0538 53.3312 26.8506 52.2158 26.8506 50.5021C26.8506 48.7885 27.0538 47.6697 27.6465 47.6697C28.2391 47.6697 28.1646 48.7716 28.1646 50.5021Z" fill="white" stroke="#263238" stroke-width="0.87381" stroke-linecap="round" stroke-linejoin="round"/>
<path d="M39.2998 48.1801H39.4014C40.0009 48.2029 40.5682 48.4567 40.9842 48.8881C41.4002 49.3195 41.6327 49.8949 41.6327 50.4937C41.6327 51.0924 41.4002 51.6679 40.9842 52.0993C40.5682 52.5306 40.0009 52.7844 39.4014 52.8073H39.2998V48.1801Z" fill="#263238" stroke="#263238" stroke-width="0.87381" stroke-miterlimit="10"/>
<path d="M38.7449 50.5021C38.7449 52.2158 38.6737 53.3312 39.2664 53.3312C39.8591 53.3312 40.0623 52.2158 40.0623 50.5021C40.0623 48.7885 39.8591 47.6697 39.2664 47.6697C38.6737 47.6697 38.7449 48.7716 38.7449 50.5021Z" fill="white" stroke="#263238" stroke-width="0.87381" stroke-linecap="round" stroke-linejoin="round"/>
<path d="M29.4922 50.9178C29.4922 50.9178 30.4574 52.1042 32.2659 51.168" stroke="#263238" stroke-width="0.87381" stroke-linecap="round" stroke-linejoin="round"/>
<path d="M32.2656 55.5315C32.6648 55.8209 33.1455 55.9767 33.6389 55.9767C34.1323 55.9767 34.613 55.8209 35.0122 55.5315" stroke="#263238" stroke-width="0.75" stroke-linecap="round" stroke-linejoin="round"/>
<path d="M29.2246 49.3259C29.2246 49.3259 30.9755 47.9942 32.5334 49.3259" stroke="#263238" stroke-width="0.87381" stroke-linecap="round" stroke-linejoin="round"/>
<path d="M37.8234 49.3698C37.8234 49.3698 36.0725 48.0178 34.5146 49.3698" stroke="#263238" stroke-width="0.87381" stroke-linecap="round" stroke-linejoin="round"/>
<path d="M34.911 53.6658C34.911 53.6658 35.0668 54.531 33.4784 54.5108C33.0889 54.5108 32.3811 54.2336 32.3574 53.6658" stroke="#263238" stroke-width="0.75" stroke-linecap="round" stroke-linejoin="round"/>
<path d="M29.8721 51.2321C30.0177 51.5194 30.3462 51.8506 31.0811 51.8675C31.816 51.8844 31.9447 51.5937 31.9583 51.3098C31.6308 51.4684 31.2692 51.5443 30.9054 51.5307C30.5417 51.5172 30.1868 51.4146 29.8721 51.2321Z" fill="#263238"/>
<path d="M37.5696 50.9178C37.5696 50.9178 36.6044 52.1042 34.7959 51.168" stroke="#263238" stroke-width="0.87381" stroke-linecap="round" stroke-linejoin="round"/>
<path d="M37.1907 51.2321C37.0451 51.5194 36.7165 51.8506 35.9816 51.8675C35.2467 51.8844 35.118 51.5937 35.1045 51.3098C35.4319 51.4687 35.7935 51.5447 36.1573 51.5312C36.5211 51.5176 36.876 51.4149 37.1907 51.2321Z" fill="#263238"/>
<path d="M30.4743 38.3137C30.4743 38.3137 29.5836 38.8106 29.6819 40.2234C29.6819 40.2234 29.3703 39.2703 28.2256 39.686" stroke="#263238" stroke-width="0.87381" stroke-linecap="round" stroke-linejoin="round"/>
<path d="M33.6544 63.3461C34.8217 63.3458 35.9604 62.9856 36.9146 62.3146C37.8688 61.6436 38.5919 60.6946 38.985 59.5977C38.6768 59.5504 38.372 59.5098 38.0774 59.4692C37.6133 60.2235 36.9631 60.8465 36.1891 61.2787C35.4151 61.7108 34.543 61.9377 33.6561 61.9377C32.7692 61.9377 31.8971 61.7108 31.123 61.2787C30.349 60.8465 29.6989 60.2235 29.2348 59.4692C28.9401 59.5098 28.6353 59.5504 28.3271 59.5977C28.72 60.6941 29.4426 61.6426 30.3962 62.3136C31.3497 62.9845 32.4877 63.3451 33.6544 63.3461Z" fill="#263238" stroke="#263238" stroke-width="0.87381" stroke-linecap="round" stroke-linejoin="round"/>
<path d="M46.6963 79.5126C46.8453 76.2182 46.9954 72.9227 47.1467 69.6261" stroke="#263238" stroke-width="0.87381" stroke-linecap="round" stroke-linejoin="round"/>
<path d="M46.8077 45.841V42.2008C46.8077 42.0215 46.7364 41.8496 46.6094 41.7228C46.4823 41.596 46.3101 41.5248 46.1304 41.5248H40.4205C40.2409 41.5248 40.0686 41.596 39.9415 41.7228C39.8145 41.8496 39.7432 42.0215 39.7432 42.2008V45.841C39.7432 46.0203 39.8145 46.1923 39.9415 46.319C40.0686 46.4458 40.2409 46.517 40.4205 46.517H42.4119L42.2527 47.9028H43.2687V49.2109L44.4845 47.0781H43.4854L43.5904 46.517H46.127C46.2163 46.5175 46.3047 46.5003 46.3873 46.4666C46.4698 46.4328 46.5449 46.3831 46.6082 46.3202C46.6714 46.2574 46.7216 46.1828 46.7559 46.1005C46.7901 46.0183 46.8077 45.9301 46.8077 45.841Z" fill="white" stroke="#263238" stroke-width="0.87381" stroke-linecap="round" stroke-linejoin="round"/>
<path d="M40.8477 42.7855H44.7186" stroke="#263238" stroke-width="0.87381" stroke-linecap="round" stroke-linejoin="round"/>
<path d="M40.8477 43.8164H45.7143" stroke="#263238" stroke-width="0.87381" stroke-linecap="round" stroke-linejoin="round"/>
<path d="M40.8477 44.8473H44.9659" stroke="#263238" stroke-width="0.87381" stroke-linecap="round" stroke-linejoin="round"/>
<path d="M64.3512 87.2426C64.3512 88.3175 62.6578 88.9901 60.5784 88.9901C58.499 88.9901 56.8057 88.3141 56.8057 87.2426C56.8057 86.1712 58.499 85.2924 60.5784 85.2924C62.6578 85.2924 64.3512 86.1644 64.3512 87.2426Z" fill="white" stroke="#263238" stroke-width="0.87381" stroke-linecap="round" stroke-linejoin="round"/>
<path d="M58.1367 88.6014C58.2383 88.5777 58.3196 88.0099 57.4018 87.5874C56.7651 87.2967 56.7482 86.9891 57.1139 86.6105C57.4797 86.232 58.1029 85.9143 58.5838 86.0528C59.3661 86.2759 59.8842 87.9017 60.2331 87.5502C60.758 87.415 60.1247 85.9244 59.1866 85.4343C60.8799 85.8534 60.9612 87.8003 61.7401 87.6448C62.3362 87.5299 61.3066 85.5965 60.4159 85.0253C60.9868 85.2908 61.486 85.6882 61.8722 86.1847C62.4378 87.006 62.5021 87.2832 62.8882 87.1649C63.3894 87.006 62.1939 85.2011 62.0449 85.005C62.7968 85.3025 62.939 85.9312 63.1693 86.1847C63.3996 86.4382 63.508 86.8607 63.8263 86.695C64.1447 86.5294 63.85 85.9413 63.6367 85.5965C62.6207 83.9572 60.9273 83.6835 59.3153 83.8863C58.0419 84.0485 56.5789 84.5825 55.8033 85.5965C55.606 85.8492 55.49 86.1557 55.4707 86.4755C55.4513 86.7953 55.5295 87.1134 55.6949 87.3879C55.9659 87.9592 56.9345 88.8718 58.1367 88.6014Z" fill="white" stroke="#263238" stroke-width="0.87381" stroke-linecap="round" stroke-linejoin="round"/>
<path d="M65.3398 89.0037H3.01497C2.8298 89.0037 2.67969 89.1535 2.67969 89.3383V89.8757C2.67969 90.0605 2.8298 90.2103 3.01497 90.2103H65.3398C65.525 90.2103 65.6751 90.0605 65.6751 89.8757V89.3383C65.6751 89.1535 65.525 89.0037 65.3398 89.0037Z" fill="#BFBFBF" stroke="#263238" stroke-width="0.87381" stroke-miterlimit="10"/>
<path d="M4.84416 89.0036L0.258609 75.0949C0.241327 75.0408 0.236842 74.9833 0.245504 74.9272C0.254167 74.871 0.275741 74.8175 0.30854 74.7711C0.34134 74.7246 0.384474 74.6863 0.434565 74.6592C0.484656 74.6321 0.540346 74.617 0.597276 74.615H15.082L20.2399 89.0036H4.84416Z" fill="#263238"/>
<path d="M15.4779 74.615L20.2192 88.1958H32.9192V88.6724C32.9192 88.7621 32.8836 88.848 32.8201 88.9114C32.7565 88.9748 32.6704 89.0104 32.5806 89.0104H19.4064L14.8446 75.1761C14.8244 75.1139 14.8191 75.0479 14.8292 74.9834C14.8393 74.9188 14.8645 74.8576 14.9028 74.8046C14.9411 74.7516 14.9913 74.7083 15.0494 74.6783C15.1076 74.6483 15.172 74.6324 15.2375 74.6319L15.4779 74.615Z" fill="white" stroke="#263238" stroke-width="0.87381" stroke-linecap="round" stroke-linejoin="round"/>
<path d="M8.75194 81.8109C8.7072 81.5747 8.5969 81.3557 8.43359 81.1789C8.50449 81.0953 8.5934 81.0287 8.69368 80.9843C8.79397 80.9398 8.90303 80.9185 9.01271 80.922C9.26869 80.9329 9.5141 81.0269 9.71158 81.1898C9.90905 81.3527 10.0478 81.5756 10.1066 81.8245C10.1379 81.9322 10.1431 82.0459 10.1216 82.1561C10.1001 82.2662 10.0527 82.3697 9.98315 82.4579C9.91363 82.5461 9.82406 82.6165 9.72185 82.6633C9.61965 82.7101 9.50774 82.7319 9.39541 82.7269C9.13569 82.7209 8.88635 82.624 8.69098 82.4531C8.78865 82.2535 8.81032 82.0253 8.75194 81.8109Z" fill="white"/>
<path d="M38.0975 89.0037H42.7271C43.3438 88.553 43.8436 87.9617 44.1847 87.2791C44.5258 86.5964 44.6984 85.8422 44.688 85.0795V82.9061C44.688 82.8236 44.6717 82.7418 44.64 82.6656C44.6084 82.5893 44.562 82.52 44.5035 82.4616C44.445 82.4032 44.3755 82.3569 44.2991 82.3253C44.2227 82.2937 44.1408 82.2775 44.0581 82.2775H36.7835C36.7009 82.2775 36.6192 82.2937 36.5429 82.3254C36.4667 82.357 36.3975 82.4034 36.3393 82.4618C36.281 82.5202 36.235 82.5896 36.2037 82.6658C36.1724 82.7421 36.1565 82.8237 36.1569 82.9061V85.0795C36.1439 85.8405 36.3132 86.5937 36.6508 87.2763C36.9883 87.9588 37.4843 88.5511 38.0975 89.0037Z" fill="white" stroke="#263238" stroke-width="0.87381" stroke-linecap="round" stroke-linejoin="round"/>
<path d="M46.0026 83.2036C45.8075 83.081 45.584 83.011 45.3537 83.0003C45.1234 82.9897 44.8942 83.0387 44.6886 83.1428V83.9269C44.8892 83.8934 45.0952 83.9342 45.2677 84.0418C45.9214 84.4204 45.7825 85.1944 45.3253 85.9819C45.1162 86.4283 44.7566 86.7872 44.3093 86.9959C44.1757 87.3211 44.0064 87.6306 43.8047 87.9187C44.6751 88.108 45.4709 87.3711 46.0941 86.2963C46.8256 85.0322 47.0457 83.8052 46.0026 83.2036Z" fill="white" stroke="#263238" stroke-width="0.87381" stroke-linecap="round" stroke-linejoin="round"/>
<path d="M40.5093 78.8534C40.6776 78.306 40.7609 77.7361 40.7565 77.1634C40.7565 73.9862 37.7627 73.6111 37.7627 70.0012" stroke="#263238" stroke-width="0.87381" stroke-linecap="round" stroke-linejoin="round"/>
<path d="M38.3857 81.6555C38.928 81.3185 39.3968 80.8759 39.7641 80.3542" stroke="#263238" stroke-width="0.87381" stroke-linecap="round" stroke-linejoin="round"/>
<path d="M40.2492 73.0298C40.0814 72.7195 40.0116 72.3661 40.0488 72.0157" stroke="#263238" stroke-width="0.87381" stroke-linecap="round" stroke-linejoin="round"/>
<path d="M42.5813 77.4913C42.4289 76.4976 41.8566 75.5647 41.291 74.7163" stroke="#263238" stroke-width="0.87381" stroke-linecap="round" stroke-linejoin="round"/>
<path d="M40.8477 81.6927C40.8477 81.6927 41.8366 81.277 42.3784 79.4011" stroke="#263238" stroke-width="0.87381" stroke-linecap="round" stroke-linejoin="round"/>
<path d="M46.8967 107.834H21.5374C19.6857 107.834 18.1846 109.332 18.1846 111.18V127.911C18.1846 129.759 19.6857 131.257 21.5374 131.257H46.8967C48.7484 131.257 50.2495 129.759 50.2495 127.911V111.18C50.2495 109.332 48.7484 107.834 46.8967 107.834Z" fill="white" stroke="#263238" stroke-width="0.87381" stroke-miterlimit="10"/>
<path d="M26.2002 123.949L26.5829 130.632L26.6269 130.689C26.93 131.095 27.3249 131.424 27.7794 131.648C28.234 131.873 28.7353 131.987 29.2425 131.982C29.7497 131.976 30.2484 131.851 30.6979 131.616C31.1473 131.382 31.5349 131.044 31.8288 130.632L31.9711 123.949H26.2002Z" fill="white" stroke="#263238" stroke-width="0.87381" stroke-linecap="round" stroke-linejoin="round"/>
<path d="M33.2383 137.162C30.6693 137.611 28.0416 137.611 25.4727 137.162C25.2329 136.925 25.0266 136.657 24.8597 136.364C24.6 135.903 24.4533 135.387 24.4315 134.858C24.4098 134.33 24.5135 133.803 24.7344 133.322L26.2821 130.568L32.4153 130.635L33.7971 133.15C34.1287 133.747 34.2715 134.43 34.2069 135.109C34.1422 135.788 33.873 136.432 33.4347 136.956C33.3729 137.028 33.3073 137.097 33.2383 137.162Z" fill="#BFBFBF" stroke="#263238" stroke-width="0.87381" stroke-miterlimit="10"/>
<path d="M31.7305 133.694C32.1099 133.861 32.4718 134.065 32.8108 134.302L31.7305 133.694Z" fill="#BFBFBF"/>
<path d="M31.7305 133.694C32.1099 133.861 32.4718 134.065 32.8108 134.302" stroke="#263238" stroke-width="0.87381" stroke-miterlimit="10"/>
<path d="M25.9463 134.302C26.6195 133.842 27.3774 133.52 28.1762 133.355C28.9749 133.19 29.7987 133.184 30.5996 133.339" fill="#BFBFBF"/>
<path d="M25.9463 134.302C26.6195 133.842 27.3774 133.52 28.1762 133.355C28.9749 133.19 29.7987 133.184 30.5996 133.339" stroke="#263238" stroke-width="0.87381" stroke-miterlimit="10"/>
<path d="M22.8981 96.3721L25.6074 127.36H32.6144C32.6144 127.36 33.3087 108.432 33.7489 96.1422C33.7777 95.4132 33.6584 94.6859 33.3982 94.004C33.1379 93.3222 32.7421 92.7 32.2346 92.1749C31.7271 91.6497 31.1184 91.2325 30.4451 90.9483C29.7718 90.6642 29.0478 90.5189 28.3167 90.5213C27.5662 90.5188 26.8234 90.6719 26.1353 90.9709C25.4472 91.2699 24.8288 91.7084 24.3194 92.2584C23.8099 92.8085 23.4205 93.4582 23.1759 94.1663C22.9312 94.8744 22.8366 95.6255 22.8981 96.3721Z" fill="#263238"/>
<path d="M29.8712 90.741C29.361 90.5915 28.8316 90.5174 28.2998 90.5213V90.5213C27.5507 90.5211 26.8097 90.6759 26.1236 90.976C25.4375 91.2761 24.8212 91.7149 24.3136 92.2647C23.806 92.8145 23.4182 93.4633 23.1745 94.1703C22.9309 94.8772 22.8367 95.6269 22.8981 96.372L23.8599 107.834" stroke="white" stroke-width="0.87381" stroke-linecap="round" stroke-linejoin="round"/>
<path d="M32.7979 92.8534C32.5203 92.4599 32.1937 92.1033 31.8259 91.7921C31.8259 91.7921 31.4025 91.4541 31.2129 91.3459" stroke="white" stroke-width="0.87381" stroke-linecap="round" stroke-linejoin="round"/>
<path d="M33.2852 107.834C33.424 103.997 33.6408 99.5087 33.7593 96.1423C33.7917 95.3065 33.6294 94.4746 33.2852 93.712" stroke="white" stroke-width="0.87381" stroke-linecap="round" stroke-linejoin="round"/>
<path d="M37.5996 123.949L37.9823 130.632L38.0263 130.689C38.3294 131.095 38.7243 131.424 39.1788 131.648C39.6334 131.873 40.1347 131.987 40.6419 131.982C41.1491 131.976 41.6478 131.851 42.0973 131.616C42.5467 131.382 42.9343 131.044 43.2282 130.632L43.3705 123.949H37.5996Z" fill="white" stroke="#263238" stroke-width="0.87381" stroke-linecap="round" stroke-linejoin="round"/>
<path d="M44.6374 137.162C42.0685 137.611 39.4408 137.611 36.8718 137.162C36.6325 136.925 36.4274 136.657 36.2622 136.364C36.0012 135.903 35.8535 135.387 35.8311 134.859C35.8087 134.33 35.9124 133.803 36.1335 133.322L37.6846 130.568L43.8145 130.635L45.1962 133.15C45.5278 133.747 45.6707 134.43 45.606 135.109C45.5413 135.788 45.2721 136.432 44.8339 136.956C44.772 137.028 44.7065 137.097 44.6374 137.162Z" fill="#BFBFBF" stroke="#263238" stroke-width="0.87381" stroke-miterlimit="10"/>
<path d="M43.1299 133.694C43.5097 133.86 43.8716 134.064 44.2102 134.302L43.1299 133.694Z" fill="#BFBFBF"/>
<path d="M43.1299 133.694C43.5097 133.86 43.8716 134.064 44.2102 134.302" stroke="#263238" stroke-width="0.87381" stroke-miterlimit="10"/>
<path d="M37.3525 134.302C38.0258 133.843 38.7837 133.521 39.5825 133.355C40.3812 133.19 41.2049 133.185 42.0058 133.339" fill="#BFBFBF"/>
<path d="M37.3525 134.302C38.0258 133.843 38.7837 133.521 39.5825 133.355C40.3812 133.19 41.2049 133.185 42.0058 133.339" stroke="#263238" stroke-width="0.87381" stroke-miterlimit="10"/>
<path d="M34.3082 96.3721L37.0176 127.36H44.0246C44.0246 127.36 44.7189 108.432 45.1625 96.1422C45.189 95.4115 45.0672 94.683 44.8044 94.0004C44.5416 93.3179 44.1433 92.6954 43.6334 92.1703C43.1235 91.6453 42.5124 91.2286 41.837 90.9452C41.1617 90.6618 40.4358 90.5176 39.7032 90.5213C38.9547 90.5221 38.2144 90.6776 37.5291 90.9781C36.8438 91.2786 36.2284 91.7175 35.7215 92.2672C35.2146 92.8169 34.8274 93.4654 34.5841 94.1719C34.3409 94.8784 34.2469 95.6276 34.3082 96.3721Z" fill="#263238"/>
<path d="M41.9384 90.9878C41.235 90.6756 40.473 90.5166 39.7032 90.5213C38.9547 90.5221 38.2144 90.6776 37.5291 90.9781C36.8438 91.2786 36.2284 91.7175 35.7215 92.2672C35.2146 92.8169 34.8274 93.4655 34.5841 94.172C34.3409 94.8785 34.2469 95.6276 34.3082 96.3721L35.3242 107.834" stroke="white" stroke-width="0.87381" stroke-linecap="round" stroke-linejoin="round"/>
<path d="M44.1975 92.8534C43.9218 92.4585 43.595 92.1016 43.2256 91.7921" stroke="white" stroke-width="0.87381" stroke-linecap="round" stroke-linejoin="round"/>
<path d="M44.9798 107.834C45.1186 103.997 45.0407 99.5086 45.1626 96.1422C45.1901 95.4026 45.0656 94.6653 44.7969 93.9756" stroke="white" stroke-width="0.87381" stroke-linecap="round" stroke-linejoin="round"/>
<path d="M127.97 43.6305V29.208C127.97 28.5106 127.693 27.8417 127.199 27.3486C126.704 26.8554 126.034 26.5784 125.335 26.5784H102.665C101.966 26.5784 101.296 26.8554 100.802 27.3486C100.308 27.8417 100.03 28.5106 100.03 29.208V43.6305C100.03 44.3279 100.308 44.9967 100.802 45.4899C101.296 45.9831 101.966 46.2601 102.665 46.2601H110.559L109.936 51.7492H114V56.924L118.823 48.474H114.867L115.284 46.2567H125.335C126.034 46.2567 126.703 45.9801 127.197 45.4877C127.691 44.9953 127.969 44.3273 127.97 43.6305Z" fill="white" stroke="#263238" stroke-width="1.02547" stroke-linecap="round" stroke-linejoin="round"/>
<path d="M104.358 31.5132H119.686" stroke="#263238" stroke-width="1.02547" stroke-linecap="round" stroke-linejoin="round"/>
<path d="M104.358 35.5996H123.642" stroke="#263238" stroke-width="1.02547" stroke-linecap="round" stroke-linejoin="round"/>
<path d="M104.358 39.6859H120.675" stroke="#263238" stroke-width="1.02547" stroke-linecap="round" stroke-linejoin="round"/>
<path d="M145.286 105.386L158.982 109.943L155.585 113.336L161.925 119.663L148.229 115.107L151.626 111.714L145.286 105.386Z" fill="#E8E8E8" stroke="#263238" stroke-width="1.02547" stroke-linecap="round" stroke-linejoin="round"/>
<path d="M82.7139 105.386L69.0182 109.943L72.415 113.336L66.0752 119.663L79.7709 115.107L76.374 111.714L82.7139 105.386Z" fill="#E8E8E8" stroke="#263238" stroke-width="1.02547" stroke-linecap="round" stroke-linejoin="round"/>
<path d="M113.618 0.863281L107.159 13.7546H111.968V22.7048L118.423 9.81352H113.618V0.863281Z" fill="#E8E8E8" stroke="#263238" stroke-width="1.02547" stroke-linecap="round" stroke-linejoin="round"/>
</svg>
